<?xml version="1.0" encoding="utf-8"?>
<!-- Generator: Adobe Illustrator 26.4.1, SVG Export Plug-In . SVG Version: 6.00 Build 0)  -->
<svg version="1.1"
	 id="svg9579" xmlns:svg="http://www.w3.org/2000/svg" xmlns:inkscape="http://www.inkscape.org/namespaces/inkscape" xmlns:rdf="http://www.w3.org/1999/02/22-rdf-syntax-ns#" xmlns:sodipodi="http://sodipodi.sourceforge.net/DTD/sodipodi-0.dtd" xmlns:cc="http://creativecommons.org/ns#" xmlns:dc="http://purl.org/dc/elements/1.1/" inkscape:version="0.91 r13725" sodipodi:docname="icon-computer.svg"
	 xmlns="http://www.w3.org/2000/svg" xmlns:xlink="http://www.w3.org/1999/xlink" x="0px" y="0px" viewBox="0 0 64.2 45.6"
	 style="enable-background:new 0 0 64.2 45.6;" xml:space="preserve">
<style type="text/css">
	.st0{fill:#CCCCCC;}
	.st1{fill:#1D1B48;}
	.st2{fill-rule:evenodd;clip-rule:evenodd;fill:#FFFFFF;stroke:#CCCCCC;stroke-width:0.8;stroke-miterlimit:3.2;}
</style>
<sodipodi:namedview  bordercolor="#666666" borderopacity="1.0" fit-margin-bottom="0" fit-margin-left="0" fit-margin-right="0" fit-margin-top="0" id="base" inkscape:current-layer="layer1" inkscape:cx="70.309142" inkscape:cy="10.428793" inkscape:document-units="px" inkscape:guide-bbox="true" inkscape:pageopacity="0.0" inkscape:pageshadow="2" inkscape:window-height="711" inkscape:window-maximized="1" inkscape:window-width="1366" inkscape:window-x="0" inkscape:window-y="0" inkscape:zoom="6.1796875" pagecolor="#ffffff" showgrid="false" showguides="true">
	<sodipodi:guide  id="guide10138" orientation="0.84914489,-0.52815997" position="41.227539,68.150758"></sodipodi:guide>
	<sodipodi:guide  id="guide10140" orientation="0.86188337,0.50710655" position="41.227539,68.150758"></sodipodi:guide>
	<sodipodi:guide  id="guide10142" orientation="0.87934005,-0.47619436" position="41.227539,68.150758"></sodipodi:guide>
	<sodipodi:guide  id="guide10144" orientation="0.88905216,0.45780591" position="41.227539,68.150758"></sodipodi:guide>
	<sodipodi:guide  id="guide10146" orientation="0.90936413,-0.41600106" position="41.227539,68.150758"></sodipodi:guide>
	<sodipodi:guide  id="guide10148" orientation="0.9379571,-0.34675132" position="41.227539,68.150758"></sodipodi:guide>
	<sodipodi:guide  id="guide10150" orientation="0.96272084,-0.27049693" position="41.227539,68.150758"></sodipodi:guide>
	<sodipodi:guide  id="guide10152" orientation="0.98264022,-0.1855214" position="41.227539,68.150758"></sodipodi:guide>
	<sodipodi:guide  id="guide10154" orientation="0.99556329,-0.094094314" position="41.227539,68.150758"></sodipodi:guide>
	<sodipodi:guide  id="guide10156" orientation="0.92152969,0.38830792" position="41.227539,68.150758"></sodipodi:guide>
	<sodipodi:guide  id="guide10158" orientation="0.95202036,0.30603471" position="41.227539,68.150758"></sodipodi:guide>
	<sodipodi:guide  id="guide10160" orientation="0.97672663,0.21448796" position="41.227539,68.150758"></sodipodi:guide>
	<sodipodi:guide  id="guide10162" orientation="0.9938834,0.11043452" position="41.227539,68.150758"></sodipodi:guide>
	<sodipodi:guide  id="guide10164" orientation="1,0" position="41.227539,68.150758"></sodipodi:guide>
	<sodipodi:guide  id="guide10166" orientation="0,1" position="6.0809778,11.644161"></sodipodi:guide>
	<sodipodi:guide  id="guide10168" orientation="0,1" position="4.6989518,9.4222215"></sodipodi:guide>
	<sodipodi:guide  id="guide10170" orientation="0,1" position="1.1609137,3.7339718"></sodipodi:guide>
	<sodipodi:guide  id="guide10172" orientation="0,1" position="2.8916507,6.5165516"></sodipodi:guide>
</sodipodi:namedview>
<g>
	<path id="rect10127" class="st0" d="M6.8,0h49.9c0.9,0,1.6,0.7,1.6,1.6v31c0,0.9-0.7,1.6-1.6,1.6H6.8c-0.9,0-1.6-0.7-1.6-1.6v-31
		C5.2,0.7,5.9,0,6.8,0z"/>
	<path id="rect10129" class="st1" d="M9.6,3.1h44.2c0.9,0,1.6,0.7,1.6,1.6v24.5c0,0.9-0.7,1.6-1.6,1.6H9.6c-0.9,0-1.6-0.7-1.6-1.6
		V4.7C8,3.8,8.7,3.1,9.6,3.1z"/>
	<path id="rect10131" inkscape:connector-curvature="0" sodipodi:nodetypes="sssssssss" class="st0" d="M6.5,34.7h51.2
		c0.9,0,1.4,0.8,1.9,1.6l4.5,7.7c0.5,0.8-0.7,1.6-1.6,1.6H1.7c-0.9,0-2.1-0.8-1.6-1.6l4.8-7.7C5.4,35.5,5.6,34.7,6.5,34.7z"/>
	<g id="g10263">
		<path id="path10174" inkscape:connector-curvature="0" class="st2" d="M5.1,42.6l1.2-2.2h4.1l-1,2.2H5.1z"/>
		<path id="path10176" inkscape:connector-curvature="0" class="st2" d="M6.3,40.4L7.5,38h3.9l-1.1,2.3H6.3z"/>
		<path id="path10178" inkscape:connector-curvature="0" class="st2" d="M7.5,38l1-1.8h3.8L11.5,38H7.5z"/>
		<path id="path10180" inkscape:connector-curvature="0" class="st2" d="M12.3,36.3h4L15.6,38h-4.1L12.3,36.3z"/>
		<path id="path10182" inkscape:connector-curvature="0" class="st2" d="M11.5,38l-1.1,2.3h4.3l0.9-2.3H11.5z"/>
		<path id="path10184" inkscape:connector-curvature="0" class="st2" d="M10.4,40.4l-1,2.2h4.5l0.8-2.2H10.4z"/>
		<path id="path10186" inkscape:connector-curvature="0" class="st2" d="M13.9,42.6h4.6l0.6-2.2h-4.4L13.9,42.6z"/>
		<path id="path10188" inkscape:connector-curvature="0" class="st2" d="M14.8,40.4l0.9-2.3h4.2l-0.7,2.3H14.8z"/>
		<path id="path10190" inkscape:connector-curvature="0" class="st2" d="M15.6,38l0.7-1.8h4L19.8,38C19.8,38,15.6,38,15.6,38z"/>
		<path id="path10192" inkscape:connector-curvature="0" class="st2" d="M20.3,36.3h4.2L24.1,38h-4.3L20.3,36.3z"/>
		<path id="path10194" inkscape:connector-curvature="0" class="st2" d="M19.8,38l-0.7,2.3h4.5l0.4-2.3H19.8z"/>
		<path id="path10210" inkscape:connector-curvature="0" class="st2" d="M18.5,42.6l0.6-2.2h24.7l0.5,2.2H18.5z"/>
		<path id="path10212" inkscape:connector-curvature="0" class="st2" d="M23.7,40.4l0.4-2.3h4.4l-0.2,2.3H23.7z"/>
		<path id="path10214" inkscape:connector-curvature="0" class="st2" d="M24.1,38l0.3-1.8h4.3L28.5,38H24.1z"/>
		<path id="path10216" inkscape:connector-curvature="0" class="st2" d="M28.3,40.4H33V38h-4.4L28.3,40.4L28.3,40.4z"/>
		<path id="path10218" inkscape:connector-curvature="0" class="st2" d="M28.5,38l0.2-1.8H33V38H28.5L28.5,38z"/>
		<path id="path10220" inkscape:connector-curvature="0" class="st2" d="M33,36.3h5l0.2,1.8H33V36.3z"/>
		<path id="path10222" inkscape:connector-curvature="0" class="st2" d="M33,38v2.3h5.5L38.2,38H33z"/>
		<path id="path10224" inkscape:connector-curvature="0" class="st2" d="M38,36.3h4.9l0.4,1.8h-5.1L38,36.3z"/>
		<path id="path10226" inkscape:connector-curvature="0" class="st2" d="M38.2,38l0.3,2.3h5.3L43.3,38H38.2z"/>
		<path id="path10228" inkscape:connector-curvature="0" class="st2" d="M43.8,40.4l0.5,2.2h5.2l-0.7-2.2H43.8z"/>
		<path id="path10230" inkscape:connector-curvature="0" class="st2" d="M43.8,40.4L43.3,38h4.8l0.7,2.3H43.8z"/>
		<path id="path10232" inkscape:connector-curvature="0" class="st2" d="M43.3,38l-0.4-1.8h4.6l0.6,1.8H43.3z"/>
		<path id="path10234" inkscape:connector-curvature="0" class="st2" d="M47.5,36.3H52l0.7,1.8h-4.7L47.5,36.3z"/>
		<path id="path10236" inkscape:connector-curvature="0" class="st2" d="M48.1,38l0.7,2.3h4.9l-1-2.3H48.1z"/>
		<path id="path10238" inkscape:connector-curvature="0" class="st2" d="M48.8,40.4l0.7,2.2h5.1l-0.9-2.2H48.8z"/>
		<path id="path10240" inkscape:connector-curvature="0" class="st2" d="M54.7,42.6h4.8L57.2,38h-4.4L54.7,42.6z"/>
		<path id="path10242" inkscape:connector-curvature="0" class="st2" d="M52.8,38L52,36.3h4.2l0.9,1.8H52.8z"/>
	</g>
</g>
</svg>
